<svg id="cross" xmlns="http://www.w3.org/2000/svg" width="20" height="20" viewBox="0 0 220.176 220.176" fill="#fff"><style>#cross { width: 2rem; height: 2rem; }</style><path d="M131.577 110.084l84.176-84.146c5.897-5.928 5.897-15.565 0-21.492-5.928-5.928-15.595-5.928-21.492 0l-84.17 84.146L25.94 4.446c-5.927-5.928-15.564-5.928-21.49 0s-5.93 15.565 0 21.492l84.145 84.146-84.15 84.176c-5.927 5.897-5.927 15.565 0 21.492 5.93 5.897 15.566 5.897 21.493 0l84.146-84.176 84.176 84.176c5.897 5.897 15.565 5.897 21.492 0 5.897-5.928 5.897-15.595 0-21.492l-84.175-84.176z"/></svg>