<svg id="github" xmlns="http://www.w3.org/2000/svg" width="40" height="40" viewBox="0 0 438.549 438.549" fill="#34db73"><style>#github { width: 5rem; height: 5rem; }</style><path d="M409.132 114.573c-19.608-33.596-46.205-60.194-79.798-79.8C295.736 15.166 259.057 5.365 219.27 5.365c-39.78 0-76.47 9.804-110.062 29.408-33.596 19.605-60.192 46.204-79.8 79.8C9.803 148.168 0 184.853 0 224.63c0 47.78 13.94 90.745 41.827 128.906 27.884 38.164 63.906 64.572 108.063 79.227 5.14.954 8.945.283 11.42-1.996 2.474-2.282 3.71-5.14 3.71-8.562 0-.57-.05-5.708-.144-15.417-.098-9.71-.144-18.18-.144-25.406l-6.567 1.136c-4.187.767-9.47 1.092-15.846 1-6.38-.09-12.998-.757-19.85-2-6.853-1.23-13.23-4.085-19.13-8.558-5.897-4.473-10.084-10.328-12.56-17.556l-2.854-6.57c-1.903-4.374-4.9-9.233-8.99-14.56-4.095-5.33-8.234-8.944-12.42-10.847l-2-1.43c-1.33-.952-2.568-2.1-3.71-3.43-1.143-1.33-1.998-2.663-2.57-3.997-.57-1.335-.097-2.43 1.43-3.29 1.523-.858 4.28-1.275 8.28-1.275l5.706.853c3.807.763 8.516 3.042 14.133 6.85 5.614 3.807 10.23 8.755 13.846 14.843 4.38 7.81 9.658 13.76 15.847 17.85 6.183 4.097 12.42 6.14 18.7 6.14 6.28 0 11.702-.476 16.272-1.423 4.564-.95 8.847-2.382 12.846-4.284 1.712-12.76 6.376-22.56 13.987-29.41-10.845-1.14-20.6-2.857-29.26-5.14-8.66-2.286-17.606-5.996-26.836-11.14-9.234-5.137-16.895-11.516-22.984-19.126-6.09-7.614-11.09-17.61-14.99-29.98-3.9-12.373-5.85-26.647-5.85-42.825 0-23.035 7.52-42.637 22.557-58.817-7.043-17.316-6.38-36.73 1.998-58.24 5.52-1.713 13.706-.426 24.554 3.855 10.85 4.284 18.793 7.953 23.84 10.995 5.045 3.04 9.09 5.617 12.134 7.707 17.706-4.948 35.977-7.42 54.82-7.42s37.116 2.472 54.822 7.42l10.85-6.85c7.418-4.57 16.18-8.758 26.26-12.565 10.09-3.806 17.803-4.854 23.135-3.14 8.56 21.51 9.324 40.923 2.28 58.24 15.034 16.18 22.557 35.788 22.557 58.818 0 16.18-1.958 30.5-5.853 42.968-3.9 12.47-8.94 22.46-15.126 29.98-6.19 7.52-13.9 13.85-23.13 18.987-9.233 5.14-18.183 8.85-26.84 11.136-8.663 2.285-18.416 4.003-29.264 5.145 9.894 8.564 14.842 22.08 14.842 40.54v60.23c0 3.42 1.19 6.28 3.572 8.56 2.38 2.28 6.133 2.95 11.273 1.995 44.163-14.653 80.185-41.062 108.068-79.226 27.88-38.16 41.828-81.13 41.828-128.91-.01-39.77-9.82-76.456-29.415-110.05z"/></svg>