<svg id="logo" xmlns="http://www.w3.org/2000/svg" viewBox="0 0 1026 215.3" fill="#475252"><style>.st0{stroke:#475252;stroke-miterlimit:10;}#logo{width:15rem;stroke-width:3px;}</style><path id="XMLID_21_" class="st0" d="M79.2 13.8v190h4v-186h98v-4h-102z"/><path id="XMLID_6_" class="st0" d="M203.2 199.8v-182h100v-4h-105v190h106v-4z"/><path id="XMLID_9_" class="st0" d="M908.2 138.3V17.8h101v-4h-105v190h106v-4h-102z"/><path id="XMLID_5_" class="st0" d="M21.2 13.8v189.9h4V13.8h-4z"/><path id="XMLID_8_" class="st0" d="M326.7 203.8l24.6-60h.1l8.6-22 39.5-102.2 30.6 78.5 9.3 23c.8 1.9 1.5 3.7 2.2 5.5l.1.2v.2c18.2 45.3 22.1 55.7 22.1 55.7h-.1l8.7 21h4.7l-75.2-190h-4.6l-75.2 190h4.6z"/><path id="XMLID_10_" class="st0" d="M450.2 13.8v4h66v186h4v-186h66v-4z"/><path id="XMLID_11_" class="st0" d="M731.2 13.8v135.6c0 33.2-33.4 49.5-62.5 49.5s-62.5-16.3-62.5-49.2V13.8h-4v135.6c0 35.4 34.9 53.9 66.5 53.9 31.3 0 66.5-18.5 66.5-53.6V13.8h-4z"/><path id="XMLID_12_" class="st0" d="M764.2 17.8h62c71 0 71 103 0 103h-37v3.8l88.2 79.2h6.3l-87.6-79h30.2c76 0 76-111 0-111h-66v190h4v-186z"/></svg>
