<svg baseProfile="full" xmlns="http://www.w3.org/2000/svg" height="33" width="20" fill="#a4cbec"><path d="M11.123 1.115c.005-.025.03-.07.005-.073-.543-.08-1.573-.135-2.253 0-.026.004.004.048.004.073C4.44 1.667 1 5.46 1 10.043v12.97c0 4.964 4.038 9.002 9.002 9.002 4.965 0 9-4.038 9-9V10.042c0-4.585-3.44-8.376-7.88-8.928zM17 22.957c0 3.87-3.132 7.005-6.998 7.005-3.87 0-7.004-3.136-7.004-7.005V9.987c0-3.868 3.134-7.003 7.004-7.003 3.866 0 7 3.135 7 7.003v12.97zM10.994 7.932v6.114c0 .547-.444.992-.99.992-.55 0-.995-.443-.995-.992V7.932c0-.546.44-.992.99-.992.546 0 .99.444.99.992z"/></svg>